PathFileType	4	(X/Y/Z)	testWalking.trc	
DataRate	CameraRate	NumFrames	NumMarkers	Units	OrigDataRate	OrigDataStartFrame	OrigNumFrames
120	120	6	28	mm	120	272	183
Frame#	Time	RSHO			LSHO			C7			RASI			LASI			SACR			RTHAP			RTHAD			RTHLD			RLEPI			RTIAP			RTIAD			RLMAL			RHEEL			RP1MT			RP5MT			RTOE			LTHAP			LTHAD			LTHLD			LLEPI			LTIAP			LTIAD			LLMAL			LHEEL			LP1MT			LP5MT			LTOE			
		X1	Y1	Z1	X2	Y2	Z2	X3	Y3	Z3	X4	Y4	Z4	X5	Y5	Z5	X6	Y6	Z6	X7	Y7	Z7	X8	Y8	Z8	X9	Y9	Z9	X10	Y10	Z10	X11	Y11	Z11	X12	Y12	Z12	X13	Y13	Z13	X14	Y14	Z14	X15	Y15	Z15	X16	Y16	Z16	X17	Y17	Z17	X18	Y18	Z18	X19	Y19	Z19	X20	Y20	Z20	X21	Y21	Z21	X22	Y22	Z22	X23	Y23	Z23	X24	Y24	Z24	X25	Y25	Z25	X26	Y26	Z26	X27	Y27	Z27	X28	Y28	Z28	

138	1.14167	1734.97034	1440.79114	129.46837	1641.32703	1441.12854	-231.05792	1646.04834	1524.74670	-48.16682	1717.57019	974.39478	104.50075	1691.63159	984.35754	-167.56113	1522.51672	1018.21277	-15.89009	1765.58679	669.92651	69.25963	1752.49329	564.71149	87.91841	1673.45813	589.94940	142.21739	1661.50159	482.68866	131.06096	1564.72974	356.44620	55.79892	1461.45532	297.21539	52.92009	1312.32385	265.13257	91.66383	1261.90356	295.90662	35.64888	1295.62903	122.44042	124.96596	1318.03833	103.03677	4.82393	1346.00244	71.67967	54.62485	1782.38892	691.00885	-117.46769	1792.27161	614.70441	-112.42223	1713.18152	602.39886	-178.46169	1727.68359	505.33420	-159.77280	1762.03638	349.69809	-79.57937	1758.08923	241.44887	-74.42554	1708.10193	87.88484	-105.57417	1659.64807	48.94351	-49.05125	1839.81750	27.16211	-145.25687	1869.16968	39.14607	-27.14252	1907.30579	44.31314	-62.27785	
139	1.15000	1744.30200	1443.22083	129.33342	1652.76672	1443.58740	-231.82004	1656.54053	1527.10071	-48.80623	1729.41028	976.89398	103.93590	1702.26660	986.47137	-168.39792	1533.24426	1020.36133	-16.50882	1781.90356	674.64447	68.00951	1772.87585	569.43237	87.08116	1693.46179	592.86932	142.37535	1684.60278	486.14658	130.97023	1588.58545	359.38763	55.88799	1485.29114	300.30270	52.81656	1336.08484	267.80396	91.53288	1284.28137	297.97546	36.35210	1322.57837	124.77072	124.42723	1342.91418	106.17266	2.81870	1372.66870	75.01955	52.86417	1788.75830	690.49127	-118.40796	1796.80933	613.72797	-114.06976	1717.36987	603.09619	-178.99315	1730.28491	505.58023	-160.28302	1763.51184	349.84793	-79.87724	1758.98230	241.63594	-74.79797	1708.13257	88.07521	-105.78558	1659.71057	49.40816	-48.95377	1839.80042	27.06627	-145.32791	1869.15710	39.16836	-27.25633	1907.32397	44.26780	-62.31044	
140	1.15833	1753.49939	1445.56177	129.37270	1664.15674	1446.13208	-232.50906	1666.91980	1529.31702	-49.41394	1740.35168	979.19977	102.99449	1713.70593	988.72906	-169.51083	1543.94873	1022.46796	-17.18895	1797.44531	679.42096	66.38152	1793.19006	574.47723	86.31914	1713.74707	596.03845	142.52916	1706.92749	489.74094	130.67683	1612.93921	362.33945	55.91699	1509.44727	302.85950	52.79056	1360.17029	269.45322	91.34270	1307.23621	298.92993	36.79495	1349.69299	126.15015	123.81718	1369.20728	108.45631	1.68706	1400.04492	77.57159	51.64296	1794.99084	689.97125	-119.36668	1801.36279	612.74371	-115.28009	1721.37195	603.69379	-179.41647	1732.68848	505.78751	-160.58992	1764.92883	350.07758	-80.13213	1759.83252	241.88693	-75.04824	1708.17505	88.31544	-105.96566	1659.77454	49.81859	-48.91615	1839.79187	26.96700	-145.41135	1869.17529	39.18483	-27.38007	1907.23633	44.16860	-62.61436	
141	1.16667	1762.61157	1447.78723	129.43065	1675.53101	1448.64563	-233.09425	1677.23596	1531.43201	-50.02274	1751.32739	981.54236	101.97542	1724.78186	991.08307	-170.53574	1554.66406	1024.56189	-17.90091	1813.43396	684.49774	64.83871	1813.29126	579.73901	85.60048	1733.91650	599.41473	142.58690	1729.10364	493.37729	130.33220	1637.10815	365.12192	55.65982	1533.91699	305.01978	52.67412	1384.50623	270.05844	91.00569	1330.66711	298.87137	36.66553	1376.87500	126.66869	123.18059	1396.76917	109.86799	1.03903	1428.20276	79.40926	50.92986	1801.03430	689.52228	-120.39161	1805.80518	611.86859	-116.17834	1725.21399	604.37762	-179.65509	1735.00244	506.11963	-160.76750	1766.35254	350.32480	-80.35898	1760.70081	242.11855	-75.26470	1708.18469	88.59194	-106.06703	1659.86902	50.21549	-48.76678	1839.81555	26.89676	-145.50308	1869.24939	39.18641	-27.47861	1907.17358	44.03619	-62.92494	
142	1.17500	1771.72485	1449.88379	129.40974	1686.92773	1451.01868	-233.64316	1687.53430	1533.47437	-50.46739	1762.30774	983.89856	100.85829	1734.23511	993.32367	-171.33943	1565.37158	1026.65222	-18.65771	1829.92688	689.77161	63.51312	1833.12366	585.19196	84.91090	1753.40747	603.07306	142.62849	1751.40698	497.07736	130.01396	1661.08679	367.78046	55.35927	1558.39893	306.72736	52.22537	1409.20959	269.83575	90.55745	1354.51245	297.73795	36.18159	1404.36353	126.38388	122.59651	1425.17395	110.33290	0.33948	1457.15295	80.55326	50.52879	1806.93311	689.10742	-121.47055	1810.10449	611.07855	-116.78745	1729.05615	605.08850	-179.73967	1737.37134	506.57529	-160.72760	1767.77625	350.52936	-80.53078	1761.63647	242.28580	-75.45352	1708.07556	88.86674	-106.18213	1659.99121	50.62714	-48.50914	1839.83447	26.84423	-145.57260	1868.78149	38.82851	-27.81024	1907.22913	43.89314	-63.07041	
143	1.18333	1780.87683	1451.86121	129.37700	1698.33386	1453.32703	-234.20268	1697.78857	1535.39746	-50.82652	1773.25745	986.27551	99.66597	1743.63293	995.33734	-172.09537	1576.02393	1028.61182	-19.39085	1846.37073	695.03729	62.26001	1852.73340	590.76031	84.19688	1772.75562	606.82562	142.61278	1773.47070	500.82629	129.70543	1685.29358	370.42542	55.25293	1583.01233	307.93350	51.62361	1434.21594	268.86749	90.04652	1378.70593	295.46722	35.54514	1432.55859	125.40897	122.09331	1454.45508	109.97512	0.06784	1486.97437	81.06945	50.34196	1812.40222	688.66016	-122.42580	1814.37891	610.34180	-117.09673	1732.85718	605.85260	-179.57924	1739.58569	507.00336	-160.59642	1769.26038	350.61880	-80.62272	1762.65466	242.44049	-75.61969	1707.97339	89.12098	-106.16370	1660.14185	51.06135	-48.14690	1839.84155	26.82335	-145.62299	1868.26465	38.39530	-28.20638	1907.34753	43.72088	-63.18915	
